<svg xmlns="http://www.w3.org/2000/svg" width="21.51" height="34.00" viewBox="12.000 2.000 56.000 88.500"><g opacity="1.00"><rect x="37" y="70" width="6" height="20.5" rx="3" fill="#384240"/><path d="M40.000,2.000 L61.599,28.182 A28.000,28.000 0 1 1 18.401,28.182 Z" fill="#70AD47"/><path d="M43.051,61.624 A16.88,16.88 0 1 1 56.631,48.510 L50.195,47.141 A10.3,10.3 0 1 0 41.909,55.144 Z" fill="#fff"/><path d="M41.000,48.000 L53.500,57.500 L41.000,67.500 Z" fill="#fff" stroke="#fff" stroke-width="1.2" stroke-linejoin="round"/><rect x="19.100" y="60.500" width="41.800" height="22.000" rx="11.000" fill="#fff"/><rect x="20.600" y="62.000" width="38.800" height="19.000" rx="9.500" fill="#2979C7"/><path d="M25.600,77.500 L25.600,65.500 L32.800,77.500 L32.800,65.500 M41.680,65.500 L35.440,65.500 L35.440,77.500 L41.680,77.500 M35.440,71.500 L40.720,71.500 M44.320,65.500 L46.840,77.500 L49.360,68.620 L51.880,77.500 L54.400,65.500" fill="none" stroke="#fff" stroke-width="2.2" stroke-linecap="round" stroke-linejoin="round"/></g></svg>