<svg xmlns="http://www.w3.org/2000/svg" width="53.3" height="51.7" viewBox="-16 -18 112 108.5"><g opacity="1.00"><path d="M40.000,-9.629 L67.307,23.473 A35.400,35.400 0 1 1 12.693,23.473 Z" fill="#1f2328" fill-opacity="0.35"/><path d="M40.000,-8.057 L66.536,24.109 A34.400,34.400 0 1 1 13.464,24.109 Z" fill="#E31E24"/><path d="M40.000,-5.438 L65.250,25.170 A32.733,32.733 0 1 1 14.750,25.170 Z" fill="#FFFFFF"/><path d="M40.000,-2.819 L63.964,26.230 A31.067,31.067 0 1 1 16.036,26.230 Z" fill="#005DAA"/><path d="M40.000,-0.200 L62.679,27.291 A29.400,29.400 0 1 1 17.321,27.291 Z" fill="#fff"/><rect x="37" y="70" width="6" height="20.5" rx="3" fill="#384240"/><path d="M40.000,2.000 L61.599,28.182 A28.000,28.000 0 1 1 18.401,28.182 Z" fill="#7C4DAF"/><g transform="translate(40.120 46.000) scale(1.55) translate(-12 -12.5)"><path d="M12 2.2 1.2 11.6h3.1V22h5.6v-6.4h4.2V22h5.6V11.6h3.1z" fill="#fff" stroke="#fff" stroke-width="0.8" stroke-linejoin="round"/></g></g></svg>