<svg xmlns="http://www.w3.org/2000/svg" width="25.36" height="34.00" viewBox="7.000 2.000 66.000 88.500"><g opacity="0.60"><rect x="37" y="70" width="6" height="20.5" rx="3" fill="#384240"/><path d="M40.000,2.000 L61.599,28.182 A28.000,28.000 0 1 1 18.401,28.182 Z" fill="#D93C4E"/><g transform="translate(40.120 46.000) scale(1.55) translate(-12 -12.5)"><path d="M12 2.2 1.2 11.6h3.1V22h5.6v-6.4h4.2V22h5.6V11.6h3.1z" fill="#fff" stroke="#fff" stroke-width="0.8" stroke-linejoin="round"/></g><rect x="19.100" y="60.500" width="41.800" height="22.000" rx="11.000" fill="#fff"/><rect x="20.600" y="62.000" width="38.800" height="19.000" rx="9.500" fill="#2979C7"/><path d="M25.600,77.500 L25.600,65.500 L32.800,77.500 L32.800,65.500 M41.680,65.500 L35.440,65.500 L35.440,77.500 L41.680,77.500 M35.440,71.500 L40.720,71.500 M44.320,65.500 L46.840,77.500 L49.360,68.620 L51.880,77.500 L54.400,65.500" fill="none" stroke="#fff" stroke-width="2.2" stroke-linecap="round" stroke-linejoin="round"/><circle cx="19.000" cy="27.000" r="12.000" fill="#fff"/><circle cx="19.000" cy="27.000" r="10.000" fill="#7A1420"/><path d="M14.800 22.800L23.200 31.200M23.200 22.800L14.800 31.200" fill="none" stroke="#fff" stroke-width="3" stroke-linecap="round" stroke-linejoin="round"/></g></svg>